<?xml version="1.0" encoding="UTF-8"?>
<svg id="Camada_1" data-name="Camada 1" xmlns="http://www.w3.org/2000/svg" width="151.73" height="44.45" viewBox="0 0 151.73 44.45">
  <defs>
    <style>
      .cls-1 {
        fill: #b7b7b7;
      }

      .cls-1, .cls-2 {
        stroke-width: 0px;
      }

      .cls-2 {
        fill: #fefefe;
      }
    </style>
  </defs>
  <path class="cls-2" d="M34.14,23.27c-.48.28.11.03.42-.13,2.29-1.06,4.59-2.11,6.88-3.17,1.97-.91,3.93-1.82,5.89-2.73.09-.04.17-.13.33-.08-3.44,7.37-9.2,11.87-17.03,13.83q.26.49.73.34c2.36-.74,4.71-1.48,7.07-2.21.12-.04.25-.13.44-.05-.58.45-1.14.89-1.7,1.32-8.6,6.5-18.11,11.16-28.51,14.01-.14.04-.29.14-.41-.08-1.3-2.34-2.13-4.81-2.04-7.52.09-2.7,1.1-4.99,3.11-6.82.8-.73,1.49-1.54,1.74-2.64.19-.83.04-1.61-.33-2.36-.03.37-.02.75-.08,1.12-.19,1.09-.78,1.95-1.58,2.69-.57.52-1.21.95-1.85,1.38-.73.48-1.44.99-2.05,1.62-.35.37-.64.77-.74,1.28-.03.16-.11.31-.16.46-.27,1.02-1.04,1.43-2,1.58-.7.11-1.4.03-2.07-.19-.11-.04-.25-.03-.2-.24.35-1.57.39-3.16.23-4.76-.22-2.17.18-4.24.87-6.28.38-1.13.81-2.25,1.12-3.41.44-1.66.02-3.03-1.37-4.08-.03-.02-.04-.05-.1-.12,2.15.47,4.06-.17,5.94-1.01.7-.31,1.4-.63,2.16-.79.91-.2,1.79.03,2.67.17,4.26.7,8.49,1.51,12.74,2.27.47.08.88.28,1.34.48-.72.64-1.42,1.27-2.12,1.89-1.65,1.48-3.31,2.95-5.08,4.28-1.43,1.07-2.06,2.54-2.07,4.3,0,.24,0,.49.01.73,0,.01.02.03.05.07.08-.4.15-.79.28-1.16.4-1.13,1.14-1.99,2.06-2.72,1.39-1.1,2.9-2.04,4.35-3.05,9.78-6.77,19.57-13.53,29.36-20.29.56-.39,1.15-.75,1.73-1.13.18.02.09.13.08.22-.37,2.3-.93,4.56-1.65,6.77-.75,2.3-1.7,4.52-2.84,6.65-.16.31-.37.57-.67.74-1.62.88-3.12,1.95-4.69,2.9-3.19,1.93-6.42,3.78-9.68,5.58-.08.04-.15.1-.23.15"/>
  <path class="cls-2" d="M67.76,22.26c0,5.51,0,11.03,0,16.54-1.64,0-3.29,0-4.93.02-.25,0-.21-.14-.21-.29,0-1.89,0-3.78,0-5.66,0-.13,0-.25,0-.41-.15.09-.13.22-.16.32-.53,1.9-1.05,3.81-1.56,5.72-.07.26-.17.34-.44.34-1.24-.02-2.47-.01-3.71,0-.24,0-.36-.04-.43-.31-.54-2.04-1.11-4.08-1.72-6.11v.35c0,1.92,0,3.85,0,5.77,0,.24-.06.31-.3.31-1.53-.01-3.06-.01-4.59,0-.23,0-.31-.03-.31-.29,0-5.34,0-10.68,0-16.01,0-.23.06-.29.29-.29,1.8,0,3.59.01,5.39,0,.26,0,.35.09.43.32.98,3.14,1.97,6.27,2.96,9.41.04.12.09.23.15.42.54-1.73,1.07-3.38,1.59-5.04.5-1.6,1.01-3.19,1.51-4.79.07-.24.16-.33.42-.32,1.77.01,3.55,0,5.32,0,.1,0,.21.02.31.02Z"/>
  <path class="cls-1" d="M54.25.29c-.04-.07.02-.17-.08-.22.02-.04.07-.09.1-.06.09.09.02.19-.03.28Z"/>
  <path class="cls-2" d="M149.56,30.24c-.08-.05-.15-.09-.26-.15.06-.05.09-.07.12-.1,1.47-1.01,2.09-2.62,1.7-4.36-.33-1.44-1.29-2.27-2.61-2.76-1.34-.5-2.74-.62-4.16-.63-2.59-.01-5.18,0-7.77-.01-.3,0-.35.09-.35.37,0,5.21,0,10.42,0,15.63v.35c-.1-.13-.15-.25-.19-.38-1.73-5.22-3.46-10.43-5.17-15.65-.08-.24-.17-.32-.43-.32-2.25.01-4.51.01-6.76,0-.26,0-.35.09-.43.32-1.38,4.2-2.78,8.41-4.17,12.61-.33,1.01-.67,2.01-1.01,3.05-.06-.07-.09-.1-.12-.14-1.95-2.88-3.9-5.77-5.85-8.65-.14-.2-.05-.3.05-.45,1.56-2.14,3.12-4.27,4.67-6.41.07-.09.18-.18.18-.33-1.6,0-3.19,0-4.78,0-.2,0-.28.11-.38.24-1.45,1.99-2.89,3.97-4.34,5.96-.07.1-.15.19-.27.35v-.42c0-1.93,0-3.87,0-5.8,0-.27-.07-.32-.33-.32-1.53.01-3.06.01-4.59,0-.22,0-.29.05-.29.28,0,5.35,0,10.7,0,16.05,0,.19.03.26.24.26,1.58,0,3.15,0,4.73,0,.18,0,.24-.05.23-.23-.01-.49.04-.98-.01-1.47-.12-.99.14-1.81.82-2.54.33-.35.58-.78.88-1.19,1.19,1.76,2.35,3.48,3.51,5.2.09.14.18.23.38.23,3.4,0,6.79,0,10.19,0,.19,0,.26-.06.31-.23.2-.64.43-1.28.63-1.92.05-.18.13-.23.31-.23,1.87,0,3.73,0,5.6,0,.17,0,.24.05.29.21.2.64.42,1.28.63,1.92.06.18.13.25.34.25,4.67,0,9.34,0,14.01-.02,1.48,0,2.93-.23,4.27-.9.99-.49,1.75-1.21,2.09-2.28.55-1.73.22-4.09-1.94-5.38ZM127.21,32.39c-.52,0-1.05,0-1.57,0-.22,0-.25-.04-.18-.25.53-1.58,1.05-3.17,1.61-4.86.58,1.75,1.13,3.4,1.69,5.1h-1.55ZM141.42,27.08c0-.17.06-.22.22-.21,1.12,0,2.24,0,3.35.01.72.01,1.12.36,1.12.89,0,.59-.44.96-1.17.97-.54,0-1.07,0-1.61,0-.56,0-1.12,0-1.68,0-.18,0-.24-.04-.24-.23.01-.48.01-.95,0-1.43ZM146.34,33.3c-.08.45-.39.67-.8.77-.71.16-1.44.09-2.04.11-.69,0-1.26,0-1.83,0-.2,0-.25-.06-.25-.26.01-.59,0-1.19,0-1.78,0-.14,0-.25.19-.24,1.21.04,2.42-.07,3.63.06.84.09,1.23.59,1.1,1.33Z"/>
  <path class="cls-2" d="M101.62,38.42c-.86-1.73-1.72-3.45-2.6-5.17-.12-.23-.12-.36.09-.55.6-.5,1.01-1.15,1.28-1.89.43-1.19.49-2.42.33-3.65-.28-2.2-1.49-3.66-3.6-4.36-1.28-.42-2.59-.56-3.93-.56-2.23,0-4.46,0-6.69-.01-.3,0-.35.08-.35.36,0,5.2,0,10.4,0,15.59v.39c-.1-.12-.15-.25-.19-.38-1.73-5.23-3.46-10.45-5.18-15.68-.08-.24-.19-.29-.42-.29-2.25,0-4.5,0-6.76,0-.25,0-.35.08-.43.32-1.73,5.26-3.48,10.52-5.22,15.78-.03.1-.07.19-.1.29-.02,0-.04-.01-.06-.02v-.38c0-5.2,0-10.4,0-15.59,0-.12.07-.25-.05-.36-.13.13-.11.3-.11.46,0,5.21,0,10.41,0,15.62,0,.16-.02.33.11.46,1.75,0,3.5,0,5.25.02.18,0,.2-.1.24-.23.2-.63.42-1.26.62-1.89.06-.19.13-.28.36-.27,1.84.01,3.69.01,5.53,0,.22,0,.3.08.36.27.19.62.41,1.23.6,1.86.06.2.16.26.36.26,3.33,0,6.65,0,9.98,0,.25,0,.3-.07.3-.31-.01-1.26,0-2.52-.01-3.78,0-.26.04-.36.33-.35.73.02,1.47.04,2.2-.04.24-.03.34.05.45.26.65,1.32,1.32,2.64,1.98,3.96.06.12.09.24.28.24,1.72,0,3.45,0,5.18,0,0-.17-.09-.28-.15-.4ZM75.31,32.38c.55-1.67,1.1-3.33,1.68-5.08.58,1.74,1.13,3.41,1.69,5.08h-3.37ZM94.26,29.72c-.45.03-.91,0-1.36,0h0c-.44.01-.89,0-1.33.02-.16,0-.22-.04-.22-.21,0-.81,0-1.63,0-2.44,0-.13,0-.22.18-.22.94.03,1.89-.06,2.83.05.85.1,1.35.65,1.33,1.43-.02.78-.58,1.33-1.43,1.38Z"/>
</svg>