<?xml version="1.0" encoding="UTF-8"?>
<svg id="Camada_1" data-name="Camada 1" xmlns="http://www.w3.org/2000/svg" width="184.02" height="53.9" viewBox="0 0 184.02 53.9">
  <defs>
    <style>
      .cls-1 {
        fill: #b7b7b7;
      }

      .cls-1, .cls-2 {
        stroke-width: 0px;
      }

      .cls-2 {
        fill: #fefefe;
      }
    </style>
  </defs>
  <path class="cls-2" d="M41.4,28.22c-.58.35.13.04.51-.16,2.78-1.28,5.56-2.56,8.34-3.85,2.38-1.1,4.76-2.21,7.15-3.31.11-.05.21-.15.4-.09-4.17,8.94-11.16,14.4-20.65,16.78q.31.59.88.41c2.86-.89,5.71-1.79,8.57-2.68.15-.05.3-.16.53-.07-.71.55-1.38,1.08-2.06,1.6-10.43,7.88-21.96,13.54-34.58,16.99-.17.05-.35.17-.5-.1-1.58-2.84-2.58-5.83-2.47-9.11.11-3.27,1.34-6.05,3.78-8.28.97-.89,1.81-1.87,2.11-3.2.23-1,.05-1.95-.4-2.86-.03.45-.02.91-.1,1.36-.23,1.32-.94,2.37-1.92,3.26-.69.63-1.47,1.15-2.24,1.67-.88.59-1.75,1.2-2.49,1.97-.43.44-.77.93-.89,1.56-.04.19-.14.37-.19.56-.33,1.24-1.26,1.74-2.42,1.92-.85.13-1.69.04-2.51-.24-.14-.05-.3-.04-.24-.29.42-1.91.47-3.84.28-5.78-.27-2.63.22-5.14,1.05-7.62.46-1.37.98-2.73,1.35-4.14.54-2.02.02-3.68-1.66-4.95-.03-.02-.05-.06-.12-.15,2.61.57,4.93-.21,7.21-1.23.85-.38,1.7-.76,2.62-.96,1.1-.24,2.17.03,3.24.21,5.16.85,10.3,1.83,15.45,2.76.57.1,1.07.35,1.63.58-.88.78-1.73,1.54-2.57,2.29-2,1.79-4.01,3.57-6.17,5.19-1.73,1.3-2.5,3.08-2.51,5.22,0,.3,0,.59.01.89,0,.02.03.04.06.08.1-.49.18-.95.34-1.4.48-1.37,1.39-2.41,2.5-3.3,1.69-1.33,3.51-2.47,5.28-3.69C39.86,17.84,51.73,9.65,63.61,1.45c.69-.47,1.39-.91,2.09-1.36.21.02.1.16.09.26-.44,2.79-1.12,5.53-2,8.21-.91,2.79-2.06,5.48-3.45,8.07-.2.37-.45.69-.82.89-1.96,1.07-3.78,2.36-5.69,3.52-3.87,2.34-7.78,4.58-11.74,6.76-.1.05-.19.12-.28.18"/>
  <path class="cls-2" d="M82.18,26.99c0,6.69,0,13.37,0,20.06-1.99,0-3.99,0-5.98.03-.31,0-.26-.17-.26-.35,0-2.29,0-4.58,0-6.87,0-.15,0-.31,0-.5-.18.11-.16.27-.19.38-.64,2.31-1.27,4.62-1.89,6.94-.08.31-.2.41-.53.41-1.5-.02-3-.02-4.5,0-.29,0-.43-.05-.52-.38-.66-2.48-1.35-4.94-2.09-7.41v.42c0,2.33,0,4.66,0,7,0,.3-.07.37-.37.37-1.85-.02-3.71-.01-5.56,0-.28,0-.38-.04-.38-.36.01-6.47,0-12.95,0-19.42,0-.28.07-.35.35-.35,2.18.01,4.36.01,6.54,0,.32,0,.43.11.52.39,1.19,3.81,2.39,7.61,3.59,11.41.05.14.1.28.19.5.66-2.09,1.29-4.1,1.93-6.11.61-1.93,1.23-3.87,1.83-5.81.09-.29.19-.4.51-.39,2.15.02,4.3,0,6.45.01.13,0,.25.02.38.03Z"/>
  <path class="cls-1" d="M65.79.35c-.05-.08.02-.21-.09-.26.03-.05.09-.11.13-.07.1.11.02.23-.03.34Z"/>
  <path class="cls-2" d="M181.39,36.68c-.09-.06-.19-.11-.31-.18.07-.06.11-.09.15-.12,1.78-1.23,2.54-3.18,2.06-5.29-.4-1.74-1.57-2.75-3.17-3.35-1.63-.61-3.33-.76-5.05-.76-3.14-.01-6.28,0-9.43-.02-.37,0-.43.1-.43.44.01,6.32,0,12.64,0,18.96v.43c-.12-.15-.18-.31-.23-.46-2.09-6.33-4.19-12.65-6.28-18.98-.09-.29-.21-.39-.52-.38-2.73.01-5.46.01-8.2,0-.32,0-.42.11-.52.39-1.68,5.1-3.37,10.19-5.06,15.29-.4,1.22-.81,2.44-1.23,3.7-.07-.08-.11-.12-.14-.17-2.36-3.5-4.72-7-7.1-10.49-.16-.24-.07-.37.06-.55,1.89-2.59,3.78-5.18,5.67-7.78.08-.11.22-.21.22-.4-1.95,0-3.87,0-5.8,0-.25,0-.34.13-.46.29-1.75,2.41-3.51,4.82-5.26,7.23-.09.12-.18.23-.32.42v-.52c0-2.35,0-4.69,0-7.04,0-.32-.08-.39-.4-.39-1.85.02-3.71.01-5.56,0-.27,0-.35.06-.35.34,0,6.49,0,12.98,0,19.47,0,.23.03.32.29.32,1.91-.01,3.82,0,5.73,0,.22,0,.29-.06.28-.28-.01-.59.05-1.19-.02-1.78-.14-1.19.17-2.2,1-3.08.4-.42.7-.94,1.06-1.44,1.44,2.14,2.85,4.22,4.25,6.3.11.17.22.28.46.28,4.12-.01,8.24,0,12.36,0,.23,0,.31-.08.38-.28.24-.78.52-1.55.76-2.33.07-.21.16-.28.38-.28,2.26,0,4.53,0,6.79,0,.2,0,.29.06.35.26.24.78.51,1.55.76,2.33.07.22.16.3.41.3,5.66-.01,11.32,0,16.99-.02,1.79,0,3.55-.28,5.18-1.09,1.2-.6,2.12-1.47,2.53-2.76.66-2.09.26-4.95-2.35-6.53ZM154.27,39.28c-.64,0-1.27-.01-1.91,0-.26,0-.3-.05-.22-.3.65-1.92,1.28-3.85,1.95-5.89.7,2.13,1.37,4.13,2.05,6.19h-1.88ZM171.52,32.85c0-.21.07-.26.27-.26,1.36,0,2.71-.01,4.07.01.87.02,1.35.43,1.35,1.08,0,.71-.53,1.16-1.42,1.17-.65,0-1.3,0-1.95,0-.68,0-1.36,0-2.03,0-.22,0-.3-.05-.29-.28.02-.58.01-1.16,0-1.74ZM177.49,40.38c-.1.55-.47.81-.97.93-.86.2-1.74.11-2.47.13-.84,0-1.53-.01-2.22,0-.25,0-.31-.07-.3-.31.01-.72,0-1.44,0-2.16,0-.16-.01-.3.23-.29,1.47.04,2.94-.09,4.4.08,1.02.11,1.49.72,1.33,1.62Z"/>
  <path class="cls-2" d="M123.25,46.59c-1.05-2.09-2.09-4.19-3.15-6.27-.14-.28-.15-.44.11-.66.73-.61,1.23-1.39,1.55-2.29.52-1.44.59-2.93.4-4.43-.34-2.67-1.8-4.44-4.36-5.29-1.55-.51-3.15-.68-4.77-.68-2.7-.01-5.41,0-8.11-.02-.36,0-.43.1-.43.44.01,6.3,0,12.61,0,18.91v.47c-.12-.15-.18-.3-.23-.46-2.1-6.34-4.2-12.68-6.28-19.02-.09-.29-.23-.35-.5-.35-2.73.01-5.46.01-8.19,0-.31,0-.43.09-.52.38-2.1,6.38-4.22,12.76-6.33,19.14-.04.12-.08.23-.12.35-.02,0-.05-.02-.07-.02v-.46c0-6.3,0-12.61,0-18.91,0-.14.08-.31-.06-.43-.16.16-.14.36-.14.56,0,6.31,0,12.63,0,18.94,0,.19-.02.4.14.56,2.12,0,4.25,0,6.37.03.22,0,.25-.12.3-.27.25-.76.51-1.52.75-2.29.07-.23.16-.33.43-.33,2.24.01,4.47.01,6.71,0,.27,0,.36.09.43.33.23.75.5,1.5.73,2.25.07.24.19.32.44.31,4.03,0,8.07,0,12.1,0,.3,0,.37-.08.37-.37-.02-1.53,0-3.05-.01-4.58,0-.31.05-.43.4-.42.89.02,1.78.05,2.67-.04.29-.03.42.07.54.32.79,1.61,1.6,3.2,2.4,4.8.07.15.11.3.34.3,2.09,0,4.18,0,6.28,0,0-.2-.11-.34-.19-.48ZM91.34,39.26c.67-2.03,1.33-4.03,2.04-6.16.7,2.12,1.37,4.13,2.04,6.16h-4.08ZM114.32,36.04c-.55.03-1.1,0-1.65,0v.02c-.54,0-1.07,0-1.61,0-.2,0-.27-.04-.27-.25.01-.99,0-1.98,0-2.96,0-.15,0-.27.22-.27,1.14.03,2.29-.07,3.43.06,1.03.12,1.64.79,1.61,1.73-.02.94-.7,1.61-1.73,1.67Z"/>
</svg>