<?xml version="1.0" encoding="UTF-8"?>
<svg id="Camada_1" data-name="Camada 1" xmlns="http://www.w3.org/2000/svg" width="3667.11" height="1074.56" viewBox="0 0 3667.11 1074.56">
  <defs>
    <style>
      .cls-1 {
        fill: #b7b7b7;
      }

      .cls-1, .cls-2 {
        stroke-width: 0px;
      }

      .cls-2 {
        fill: #fefefe;
      }
    </style>
  </defs>
  <path class="cls-2" d="M825.37,562.43c-11.56,6.98,2.59.8,10.17-3.19,55.42-25.52,110.84-51.03,166.26-76.75,47.45-21.93,94.89-44.06,142.54-65.98,2.19-1,4.19-2.99,7.97-1.79-83.13,178.22-222.48,287.06-411.66,334.51,4.12,7.84,9.97,10.57,17.54,8.17,57.01-17.74,113.83-35.68,170.84-53.43,2.99-1,5.98-3.19,10.57-1.4-14.15,10.96-27.51,21.53-41.07,31.9-207.92,157.09-437.77,269.92-689.35,338.7-3.39,1-6.98,3.39-9.97-1.99-31.5-56.62-51.43-116.22-49.24-181.61,2.19-65.19,26.71-120.61,75.35-165.06,19.34-17.74,36.08-37.28,42.06-63.79,4.59-19.94,1-38.87-7.97-57.01-.6,8.97-.4,18.14-1.99,27.11-4.59,26.31-18.74,47.25-38.28,64.99-13.76,12.56-29.3,22.93-44.65,33.29-17.54,11.76-34.89,23.92-49.64,39.27-8.57,8.77-15.35,18.54-17.74,31.1-.8,3.79-2.79,7.38-3.79,11.16-6.58,24.72-25.12,34.69-48.24,38.28-16.94,2.59-33.69.8-50.04-4.78-2.79-1-5.98-.8-4.78-5.78,8.37-38.08,9.37-76.55,5.58-115.22-5.38-52.43,4.39-102.47,20.93-151.91,9.17-27.31,19.54-54.42,26.91-82.53,10.76-40.27.4-73.36-33.09-98.68-.6-.4-1-1.2-2.39-2.99,52.03,11.36,98.28-4.19,143.73-24.52,16.94-7.58,33.89-15.15,52.23-19.14,21.93-4.78,43.26.6,64.59,4.19,102.86,16.94,205.33,36.48,308,55.02,11.36,1.99,21.33,6.98,32.49,11.56-17.54,15.55-34.49,30.7-51.23,45.65-39.87,35.68-79.94,71.17-123,103.46-34.49,25.92-49.84,61.4-50.04,104.06,0,5.98,0,11.76.2,17.74,0,.4.6.8,1.2,1.59,1.99-9.77,3.59-18.94,6.78-27.91,9.57-27.31,27.71-48.04,49.84-65.79,33.69-26.51,69.97-49.24,105.26-73.56,236.43-163.87,473.06-327.13,709.89-490.6,13.76-9.37,27.71-18.14,41.66-27.11,4.19.4,1.99,3.19,1.79,5.18-8.77,55.62-22.33,110.24-39.87,163.67-18.14,55.62-41.07,109.24-68.78,160.88-3.99,7.38-8.97,13.76-16.35,17.74-39.07,21.33-75.35,47.05-113.43,70.17-77.15,46.65-155.09,91.3-234.04,134.76-1.99,1-3.79,2.39-5.58,3.59"/>
  <path class="cls-2" d="M1638.32,537.91v399.9c-39.67,0-79.54,0-119.21.6-6.18,0-5.18-3.39-5.18-6.98v-146.92c-3.59,2.19-3.19,5.38-3.79,7.58-12.76,46.05-25.32,92.1-37.68,138.35-1.59,6.18-3.99,8.17-10.57,8.17-29.9-.4-59.81-.4-89.71,0-5.78,0-8.57-1-10.37-7.58-13.16-49.44-26.91-98.48-41.66-147.72v147.92c0,5.98-1.4,7.38-7.38,7.38-36.88-.4-73.96-.2-110.84,0-5.58,0-7.58-.8-7.58-7.18.2-128.98,0-258.16,0-387.14,0-5.58,1.4-6.98,6.98-6.98,43.46.2,86.92.2,130.38,0,6.38,0,8.57,2.19,10.37,7.77,23.72,75.95,47.64,151.71,71.57,227.46,1,2.79,1.99,5.58,3.79,9.97,13.16-41.66,25.72-81.73,38.47-121.8,12.16-38.47,24.52-77.15,36.48-115.82,1.79-5.78,3.79-7.97,10.17-7.77,42.86.4,85.72,0,128.58.2,2.59,0,4.98.4,7.58.6h-.4Z"/>
  <path class="cls-1" d="M1311.59,6.84c-1-1.59.4-4.19-1.79-5.18.6-1,1.79-2.19,2.59-1.4,1.99,2.19.4,4.59-.6,6.78l-.2-.2Z"/>
  <path class="cls-2" d="M3616.08,731.08c-1.79-1.2-3.79-2.19-6.18-3.59,1.4-1.2,2.19-1.79,2.99-2.39,35.48-24.52,50.63-63.39,41.07-105.46-7.97-34.69-31.3-54.82-63.19-66.78-32.49-12.16-66.38-15.15-100.67-15.15-62.6-.2-125.19,0-187.99-.4-7.38,0-8.57,1.99-8.57,8.77.2,125.99,0,251.98,0,377.97v8.57c-2.39-2.99-3.59-6.18-4.58-9.17-41.66-126.19-83.53-252.18-125.19-378.37-1.79-5.78-4.19-7.77-10.37-7.58-54.42.2-108.85.2-163.47,0-6.38,0-8.37,2.19-10.37,7.77-33.49,101.67-67.18,203.14-100.87,304.81-7.97,24.32-16.15,48.64-24.52,73.76-1.4-1.59-2.19-2.39-2.79-3.39-47.05-69.77-94.09-139.55-141.54-209.12-3.19-4.78-1.4-7.38,1.2-10.96,37.68-51.63,75.35-103.26,113.03-155.09,1.59-2.19,4.39-4.19,4.39-7.97h-115.62c-4.98,0-6.78,2.59-9.17,5.78-34.89,48.04-69.97,96.09-104.86,144.13-1.79,2.39-3.59,4.59-6.38,8.37v-150.71c0-6.38-1.59-7.77-7.97-7.77-36.88.4-73.96.2-110.84,0-5.38,0-6.98,1.2-6.98,6.78v388.14c0,4.59.6,6.38,5.78,6.38,38.08-.2,76.15,0,114.23,0,4.39,0,5.78-1.2,5.58-5.58-.2-11.76,1-23.72-.4-35.48-2.79-23.72,3.39-43.86,19.94-61.4,7.97-8.37,13.95-18.74,21.13-28.71,28.71,42.66,56.81,84.13,84.72,125.59,2.19,3.39,4.39,5.58,9.17,5.58,82.13-.2,164.26,0,246.4,0,4.58,0,6.18-1.59,7.58-5.58,4.78-15.55,10.37-30.9,15.15-46.45,1.4-4.19,3.19-5.58,7.58-5.58h135.36c3.99,0,5.78,1.2,6.98,5.18,4.78,15.55,10.17,30.9,15.15,46.45,1.4,4.39,3.19,5.98,8.17,5.98,112.83-.2,225.66,0,338.7-.4,35.68,0,70.77-5.58,103.26-21.73,23.92-11.96,42.26-29.3,50.44-55.02,13.16-41.66,5.18-98.68-46.85-130.18h1.4ZM3075.44,782.91c-12.76,0-25.32-.2-38.08,0-5.18,0-5.98-1-4.39-5.98,12.96-38.28,25.52-76.75,38.87-117.42,13.95,42.46,27.31,82.33,40.87,123.4h-37.48.2ZM3419.32,654.73c0-4.19,1.4-5.18,5.38-5.18,27.11,0,54.02-.2,81.14.2,17.34.4,26.91,8.57,26.91,21.53,0,14.15-10.57,23.12-28.31,23.32h-79.34c-4.39,0-5.98-1-5.78-5.58.4-11.56.2-23.12,0-34.69v.4ZM3538.33,804.84c-1.99,10.96-9.37,16.15-19.34,18.54-17.14,3.99-34.69,2.19-49.24,2.59-16.75,0-30.5-.2-44.26,0-4.98,0-6.18-1.4-5.98-6.18.2-14.35,0-28.71,0-43.06,0-3.19-.2-5.98,4.58-5.78,29.3.8,58.61-1.79,87.71,1.59,20.33,2.19,29.7,14.35,26.51,32.29h0Z"/>
  <path class="cls-2" d="M2457.05,928.64c-20.93-41.66-41.66-83.53-62.8-124.99-2.79-5.58-2.99-8.77,2.19-13.16,14.55-12.16,24.52-27.71,30.9-45.65,10.37-28.71,11.76-58.41,7.97-88.31-6.78-53.23-35.88-88.51-86.92-105.46-30.9-10.17-62.8-13.56-95.09-13.56-53.82-.2-107.85,0-161.67-.4-7.18,0-8.57,1.99-8.57,8.77.2,125.59,0,251.38,0,376.97v9.37c-2.39-2.99-3.59-5.98-4.59-9.17-41.86-126.39-83.73-252.78-125.19-379.16-1.79-5.78-4.59-6.98-9.97-6.98-54.42.2-108.85.2-163.27,0-6.18,0-8.57,1.79-10.37,7.58-41.86,127.19-84.13,254.37-126.19,381.56-.8,2.39-1.59,4.59-2.39,6.98-.4,0-1-.4-1.4-.4v-386.14c0-2.79,1.59-6.18-1.2-8.57-3.19,3.19-2.79,7.18-2.79,11.16v377.57c0,3.79-.4,7.97,2.79,11.16,42.26,0,84.72,0,126.99.6,4.39,0,4.98-2.39,5.98-5.38,4.98-15.15,10.17-30.3,14.95-45.65,1.4-4.59,3.19-6.58,8.57-6.58,44.65.2,89.11.2,133.76,0,5.38,0,7.18,1.79,8.57,6.58,4.59,14.95,9.97,29.9,14.55,44.85,1.4,4.78,3.79,6.38,8.77,6.18h241.21c5.98,0,7.38-1.59,7.38-7.38-.4-30.5,0-60.8-.2-91.3,0-6.18,1-8.57,7.97-8.37,17.74.4,35.48,1,53.23-.8,5.78-.6,8.37,1.4,10.76,6.38,15.75,32.1,31.9,63.79,47.84,95.69,1.4,2.99,2.19,5.98,6.78,5.98h125.19c0-3.99-2.19-6.78-3.79-9.57v-.4ZM1820.93,782.51c13.36-40.47,26.51-80.34,40.67-122.8,13.95,42.26,27.31,82.33,40.67,122.8h-81.34ZM2279.03,718.32c-10.96.6-21.93,0-32.89,0v.4h-32.1c-3.99,0-5.38-.8-5.38-4.98.2-19.74,0-39.47,0-59.01,0-2.99,0-5.38,4.39-5.38,22.73.6,45.65-1.4,68.38,1.2,20.53,2.39,32.69,15.75,32.1,34.49-.4,18.74-13.95,32.1-34.49,33.29Z"/>
</svg>