<?xml version="1.0" encoding="UTF-8"?>
<svg id="Camada_1" data-name="Camada 1" xmlns="http://www.w3.org/2000/svg" width="191.08" height="62.18" viewBox="0 0 191.08 62.18">
  <defs>
    <style>
      .cls-1 {
        fill: #000;
        stroke-width: 0px;
      }
    </style>
  </defs>
  <path class="cls-1" d="M80.42,43.26c-.58,2.11-1.17,4.21-1.73,6.32-.1.38-.27.52-.67.51-1.47-.02-2.95-.02-4.42,0-.42,0-.59-.15-.69-.54-.57-2.15-1.17-4.3-1.81-6.45,0,.14,0,.27,0,.41,0,2.02,0,4.04,0,6.06,0,.38-.12.51-.51.51-1.82-.02-3.65,0-5.47,0-.49,0-.54-.05-.54-.57,0-1.61,0-3.23,0-4.84,0-4.68,0-9.37,0-14.05,0-.75.01-.77.78-.77,1.98,0,3.96,0,5.94,0q.73,0,.96.71c1.13,3.58,2.26,7.16,3.39,10.75.04.12.08.24.12.38.15-.1.16-.24.19-.37,1.15-3.66,2.31-7.32,3.45-10.99.12-.39.33-.49.71-.49,2.09.01,4.18,0,6.27,0,.58,0,.61.04.61.63,0,6,0,12,0,18.01v.49c.15-.14.16-.3.2-.44,2-6.03,3.99-12.05,5.97-18.09.15-.46.37-.6.84-.6,2.6.02,5.19,0,7.79,0q.64,0,.85.63c1.97,5.96,3.94,11.92,5.91,17.89.05.14.1.28.22.41,0-.16,0-.33,0-.49,0-5.89,0-11.78,0-17.67,0-.74.02-.76.75-.76,2.43,0,4.86-.02,7.28,0,1.78.02,3.56.11,5.28.69,2.86.96,4.43,3.02,4.57,6.04.08,1.7-.09,3.36-1,4.87-.28.47-.64.88-1.05,1.25-.14.13-.2.25-.1.44.27.51.52,1.03.77,1.54.84,1.68,1.68,3.36,2.55,5.09.11-.2.07-.37.07-.52,0-6.16,0-12.31,0-18.47,0-.15,0-.31,0-.46-.01-.34.14-.48.48-.48,1.87,0,3.73,0,5.6,0,.36,0,.44.18.44.5,0,2.19,0,4.38,0,6.56v.45s.06.02.08.03c.41-.56.82-1.12,1.23-1.68,1.34-1.84,2.68-3.67,4.01-5.51.18-.26.39-.37.7-.36,1.74,0,3.48,0,5.22,0,.18,0,.4-.05.5.13.09.17-.1.31-.19.44-1.84,2.53-3.67,5.06-5.53,7.58-.23.31-.24.51-.02.84,2.2,3.23,4.39,6.48,6.58,9.72.07.1.15.2.24.32.16-.17.19-.37.25-.54,1.97-5.95,3.94-11.9,5.9-17.84q.21-.63.89-.64c2.57,0,5.14,0,7.71,0q.68,0,.9.67c1.97,5.95,3.93,11.9,5.9,17.84.05.14.05.3.22.45v-.53c0-5.86,0-11.72,0-17.58q0-.85.83-.85c2.82,0,5.64-.02,8.46,0,1.92.02,3.85.09,5.68.8,1.3.5,2.39,1.24,2.95,2.58.79,1.87.47,4.57-1.5,5.99-.3.22-.22.29.03.45,2.58,1.61,2.98,5,1.92,7.1-.58,1.16-1.55,1.89-2.72,2.39-1.37.59-2.82.88-4.3.88-5.77.03-11.54.02-17.31.03-.33,0-.48-.12-.57-.42-.21-.7-.46-1.38-.67-2.08-.08-.27-.23-.37-.52-.37-2.11.01-4.21.01-6.32,0-.29,0-.43.1-.51.37-.22.71-.47,1.41-.69,2.12-.08.27-.23.38-.51.38-4.08,0-8.17,0-12.25,0-.31,0-.45-.16-.59-.38-1.27-1.89-2.54-3.77-3.81-5.65-.26-.39-.26-.39-.53-.02-.44.6-.87,1.21-1.32,1.8-.23.3-.34.61-.33,1,.03.85,0,1.71,0,2.57q0,.68-.66.68c-1.68,0-3.37,0-5.05,0-2.28,0-4.57-.02-6.85.01-.5,0-.74-.17-.95-.6-.7-1.45-1.44-2.88-2.15-4.33-.14-.29-.31-.41-.65-.4-.79.03-1.57.03-2.36.01-.36,0-.45.13-.45.46.01,1.43,0,2.86,0,4.29,0,.55,0,.56-.57.56-3.94,0-7.89,0-11.83,0-.37,0-.55-.12-.66-.48-.2-.69-.44-1.36-.66-2.04-.08-.25-.21-.35-.48-.35-2.12,0-4.24.01-6.36,0-.3,0-.42.12-.5.39-.21.67-.46,1.33-.65,2-.11.39-.31.49-.69.49-3.93-.01-7.86,0-11.79,0-.61,0-.63-.02-.63-.65,0-2.06,0-4.12,0-6.18-.02,0-.05,0-.07,0ZM169.15,49.79c-.15-.13-.16-.27-.21-.4-2.08-6.29-4.17-12.58-6.24-18.88-.11-.34-.28-.45-.63-.45-2.6.01-5.19.02-7.79,0-.43,0-.6.15-.73.54-1.99,6.06-3.99,12.11-6,18.16-.05.16-.04.42-.24.45-.16.02-.22-.23-.33-.35-.03-.03-.05-.07-.07-.1-2.23-3.3-4.45-6.61-6.69-9.9-.22-.33-.2-.54.02-.85,1.85-2.51,3.67-5.03,5.5-7.55.07-.1.22-.2.17-.32-.07-.15-.25-.08-.38-.08-1.66,0-3.31,0-4.97-.01-.35,0-.56.12-.76.39-1.7,2.35-3.41,4.7-5.12,7.04-.09.13-.15.3-.34.35-.1-.16-.05-.34-.05-.5,0-2.27,0-4.54,0-6.81,0-.29-.03-.47-.4-.47-1.8.01-3.59.01-5.39,0-.29,0-.4.1-.39.39.01.8,0,1.6,0,2.4,0,5.51,0,11.02,0,16.53q0,.57.54.57c1.73,0,3.45,0,5.18,0,.34,0,.47-.09.46-.45-.02-.95,0-1.91-.01-2.86,0-.29.06-.54.24-.78.51-.68,1.01-1.38,1.52-2.07.31-.42.31-.42.59,0,1.3,1.93,2.61,3.86,3.91,5.79.15.22.3.37.6.37,4,0,8,0,12,0,.27,0,.41-.1.49-.35.22-.71.47-1.41.7-2.12.09-.28.22-.41.54-.4,2.19.01,4.38.01,6.57,0,.32,0,.45.13.53.41.22.71.47,1.41.69,2.12.08.26.22.35.49.35,5.85-.05,11.7.1,17.55-.08,1.28-.04,2.54-.29,3.73-.77,2.69-1.08,3.68-3.21,3.21-5.89-.27-1.55-1.14-2.68-2.46-3.5-.2-.12-.43-.21-.07-.45,1.86-1.22,2.37-3.3,1.85-5.39-.42-1.69-1.7-2.58-3.26-3.12-1.67-.58-3.4-.68-5.15-.69-2.9-.02-5.81,0-8.71,0q-.63,0-.63.61c0,6.18,0,12.37,0,18.55,0,.18.04.36-.06.56ZM108.93,49.79c-.15-.13-.16-.27-.21-.4-2.08-6.29-4.17-12.59-6.24-18.88-.11-.34-.28-.45-.63-.44-2.61.01-5.22.02-7.83,0-.4,0-.56.14-.67.5-.65,2.03-1.33,4.05-1.99,6.07-1.42,4.3-2.84,8.6-4.27,12.89-.11.32-.1.44.29.44,1.85-.02,3.71-.01,5.56,0,.27,0,.4-.1.48-.35.22-.71.47-1.41.69-2.12.09-.28.23-.4.54-.4,2.19.01,4.38.01,6.57,0,.29,0,.43.1.52.37.22.7.47,1.38.68,2.08.09.3.23.43.56.42,3.92-.01,7.83-.01,11.75,0,.35,0,.46-.11.46-.46-.02-1.44,0-2.89,0-4.33,0-.56.01-.57.56-.58.83,0,1.66,0,2.48-.03.33-.01.5.11.65.4.75,1.52,1.52,3.03,2.27,4.56.16.33.36.43.71.43,1.8-.02,3.59,0,5.39,0,.49,0,.49,0,.27-.44-1.04-2.08-2.08-4.16-3.13-6.24-.15-.29-.13-.46.13-.68.73-.61,1.21-1.39,1.54-2.27.46-1.25.51-2.55.42-3.86-.18-2.66-1.41-4.59-3.97-5.57-1.79-.68-3.66-.81-5.54-.82-2.44-.02-4.88,0-7.33,0q-.63,0-.63.61c0,6.18,0,12.37,0,18.55,0,.18.04.36-.06.56ZM71.02,42.17c.12.15.14.29.17.42.63,2.3,1.26,4.59,1.88,6.89.09.33.23.48.6.47,1.42-.02,2.83-.02,4.25,0,.39,0,.53-.14.62-.5.63-2.34,1.28-4.68,1.92-7.01.03-.11.02-.26.23-.35,0,.18,0,.32,0,.47,0,2.29.01,4.57,0,6.86,0,.43.13.54.55.54,1.68-.02,3.37-.02,5.05,0,.39,0,.54-.09.54-.51-.01-6.29-.01-12.59,0-18.88,0-.38-.11-.51-.5-.5-2.01.02-4.01.02-6.02,0-.47,0-.65.15-.79.58-1.16,3.73-2.34,7.46-3.52,11.19-.04.12-.02.32-.19.32-.14,0-.12-.2-.17-.31-.02-.04-.02-.08-.04-.12-1.18-3.73-2.36-7.45-3.52-11.19-.11-.36-.28-.48-.65-.48-2.03.02-4.07.02-6.1,0-.39,0-.53.09-.53.51.01,6.29.01,12.59,0,18.88,0,.38.1.51.49.51,1.73-.02,3.45-.02,5.18,0,.41,0,.52-.13.52-.53-.02-2.24,0-4.49,0-6.73,0-.16-.04-.34.06-.53Z"/>
  <path class="cls-1" d="M25.15,36.33c.63-2.08,2.17-3.39,3.87-4.56,6.97-4.81,13.95-9.61,20.93-14.43,6.21-4.29,12.41-8.59,18.62-12.88.57-.39,1.15-.76,1.72-1.13.11-.07.23-.2.38-.11.15.09.09.25.07.38-.7,4.06-1.77,8.02-3.35,11.83-.63,1.5-1.32,2.97-2.09,4.41-.21.4-.48.73-.87.94-1.83.98-3.52,2.2-5.29,3.27-3.26,1.98-6.56,3.91-9.89,5.76-.06.03-.12.07-.16.16.28-.12.56-.24.83-.37,4.12-1.91,8.25-3.83,12.37-5.74.06-.03.13-.06.19-.09.1-.04.22-.11.31-.02.11.1,0,.21-.04.3-.98,2.06-2.12,4.02-3.5,5.83-2.65,3.47-5.93,6.18-9.82,8.15-2.07,1.05-4.24,1.85-6.48,2.47-.16.05-.54-.02-.45.28.09.32.39.09.58.03,2.95-.91,5.89-1.84,8.84-2.75.13-.04.31-.19.4,0,.08.16-.11.24-.21.32-4.46,3.54-9.17,6.7-14.16,9.44-5.67,3.12-11.58,5.68-17.74,7.66-1.47.47-2.95.9-4.44,1.32-.34.1-.51,0-.67-.3-1.23-2.22-2.11-4.56-2.35-7.1-.35-3.77.62-7.12,3.35-9.84.59-.58,1.21-1.13,1.69-1.81.81-1.15,1.06-2.58.59-3.77-.11,1.26-.53,2.32-1.3,3.24-.59.7-1.3,1.27-2.05,1.79-1.1.76-2.24,1.45-3.2,2.39-.49.48-.89,1.01-1.03,1.7-.03.14-.1.26-.14.4-.41,1.57-1.6,2.05-3.04,2.17-.68.06-1.34-.08-1.99-.27-.32-.09-.45-.24-.37-.61.39-1.87.4-3.75.24-5.65-.19-2.2.04-4.37.75-6.47.49-1.46.97-2.93,1.45-4.39.22-.69.38-1.4.39-2.14.02-1.05-.33-1.95-1.06-2.7-.24-.25-.51-.48-.77-.72-.06-.06-.13-.12-.1-.22.04-.12.15-.11.25-.09.18.02.36.06.54.09,1.73.25,3.38-.12,4.98-.73.68-.26,1.36-.53,2.02-.85,1.56-.77,3.16-.9,4.87-.59,5.29.93,10.57,1.89,15.85,2.86.46.08.88.29,1.3.47.29.13.31.27.07.49-1.47,1.3-2.93,2.61-4.4,3.91-1.36,1.21-2.8,2.33-4.23,3.46-1.54,1.21-2.24,2.84-2.25,4.79ZM18.2,33.2c.1.08.13.09.14.12.03.05.05.1.07.15.71,1.67.42,3.2-.65,4.63-.47.62-1.05,1.13-1.6,1.67-2.36,2.34-3.37,5.23-3.32,8.49.05,2.86.93,5.51,2.29,8.01.2.37.4.44.8.33,6.41-1.78,12.6-4.14,18.55-7.13,5.09-2.56,9.93-5.52,14.51-8.91.99-.73,1.97-1.49,2.95-2.24-.12-.03-.2-.02-.28,0-2.89.91-5.78,1.81-8.67,2.72-.46.15-.71.07-.77-.33-.06-.39.34-.29.53-.35,2.23-.61,4.38-1.39,6.45-2.42,5.61-2.8,9.79-7.05,12.69-12.58.24-.45.46-.91.75-1.48-5.95,2.76-11.77,5.46-17.59,8.16-.02-.03-.03-.06-.05-.09.15-.09.3-.19.46-.27,3.96-2.11,7.86-4.34,11.71-6.64,2.11-1.26,4.15-2.63,6.26-3.88.99-.59,1.69-1.28,2.2-2.3,2.36-4.7,3.92-9.65,4.83-14.82.03-.18.2-.43.02-.54-.16-.1-.34.14-.5.25-2.76,1.79-5.42,3.7-8.12,5.56-9.17,6.33-18.33,12.66-27.49,19-2.16,1.49-4.38,2.89-6.45,4.5-1.46,1.14-2.52,2.55-2.78,4.45-.02.18.03.39-.11.56-.16-.1-.11-.25-.12-.38,0-.38-.02-.76,0-1.14.1-2.02.82-3.74,2.47-4.99,1.52-1.15,2.99-2.37,4.42-3.63,1.33-1.18,2.66-2.37,4-3.54.21-.18.18-.28-.07-.37-.33-.12-.63-.29-.99-.36-5.24-.95-10.48-1.9-15.73-2.84-1.83-.33-3.53-.24-5.19.6-.64.32-1.31.58-1.98.83-1.52.57-3.09.93-4.73.73-.2-.02-.39-.04-.68-.07.96.81,1.62,1.69,1.79,2.87.12.8,0,1.57-.24,2.32-.46,1.48-.94,2.97-1.45,4.43-.8,2.28-1.06,4.62-.86,7,.16,1.84.13,3.67-.24,5.48-.06.31.04.43.32.51.71.21,1.44.29,2.17.2,1.24-.16,2.23-.67,2.55-2.01.05-.19.13-.37.18-.56.1-.43.32-.81.61-1.14.36-.42.76-.79,1.18-1.14,1.04-.85,2.24-1.5,3.28-2.35,1.24-1.01,2.21-2.2,2.4-3.86.04-.38.04-.77.06-1.22Z"/>
  <path class="cls-1" d="M158.12,36.17c.15.11.16.23.19.33.59,1.78,1.18,3.56,1.77,5.34.14.44.11.49-.35.49-1.08,0-2.16,0-3.24,0-.26,0-.45-.04-.33-.39.63-1.87,1.24-3.74,1.86-5.62.02-.05.05-.09.09-.15ZM158.2,36.7s-.08,0-.12,0c-.57,1.73-1.14,3.45-1.71,5.18-.06.2.03.26.21.26,1.04,0,2.08,0,3.12,0,.21,0,.28-.08.21-.29-.12-.34-.23-.69-.34-1.04-.45-1.37-.9-2.74-1.36-4.11Z"/>
  <path class="cls-1" d="M177.83,41.62c.7.04,1.54-.08,2.38.1.94.2,1.39.89,1.14,1.75-.12.4-.39.64-.76.77-.39.14-.79.19-1.2.19-1.18,0-2.35,0-3.53.01-.37,0-.49-.13-.48-.49.02-.61.03-1.23,0-1.85-.02-.4.14-.51.51-.49.6.02,1.2,0,1.94,0ZM177.87,44.24h0c.46,0,.93,0,1.39,0,.38,0,.76-.01,1.13-.11.51-.14.81-.49.83-.98.03-.64-.18-.97-.74-1.17-.22-.08-.46-.14-.7-.15-1.29,0-2.58,0-3.87-.02-.3,0-.39.13-.38.41.01.52.02,1.04,0,1.55-.01.34.09.48.45.47.63-.02,1.26,0,1.89,0Z"/>
  <path class="cls-1" d="M177.82,37.89c-.67,0-1.35-.01-2.02,0-.31,0-.43-.11-.42-.42.02-.52.01-1.04,0-1.55,0-.25.1-.36.35-.35,1.37,0,2.75-.02,4.12.02.83.02,1.28.52,1.23,1.23-.05.61-.54,1.05-1.25,1.07-.67.02-1.35,0-2.02,0h0ZM177.93,35.77h0c-.67,0-1.35,0-2.02,0-.26,0-.39.08-.38.36.01.41.01.81,0,1.22,0,.25.11.35.35.35,1.33,0,2.67,0,4-.02.67-.01,1.01-.38,1.01-.99,0-.56-.36-.9-1.03-.91-.64-.02-1.29,0-1.94,0Z"/>
  <path class="cls-1" d="M97.93,36.19c.15.07.14.23.19.35.59,1.75,1.17,3.5,1.75,5.26.15.47.12.51-.36.52-1.06,0-2.13,0-3.19,0-.32,0-.47-.08-.34-.44.61-1.82,1.2-3.64,1.81-5.46.03-.08.02-.2.16-.23ZM97.96,36.61c-.08.13-.12.17-.13.22-.55,1.65-1.09,3.3-1.65,4.95-.09.27,0,.35.26.35,1,0,1.99,0,2.99,0,.31,0,.32-.13.24-.36-.16-.45-.3-.9-.45-1.36-.41-1.24-.81-2.47-1.25-3.8Z"/>
  <path class="cls-1" d="M117.21,35.57c.52.04,1.17-.07,1.81.08.94.21,1.47.87,1.43,1.79-.04.87-.64,1.51-1.58,1.63-1.12.14-2.24.04-3.36.07-.25,0-.35-.12-.34-.36,0-.94,0-1.88,0-2.81,0-.3.13-.39.41-.38.5.01,1.01,0,1.63,0ZM117.21,35.77h0c-.5,0-1.01,0-1.51,0-.25,0-.39.07-.39.36.01.83,0,1.65,0,2.48,0,.22.07.34.31.34,1.01,0,2.02.03,3.02-.02,1.06-.05,1.63-.69,1.6-1.66-.03-.9-.64-1.45-1.69-1.48-.45-.01-.9,0-1.34,0Z"/>
</svg>