<?xml version="1.0" encoding="UTF-8"?>
<svg id="Camada_2" data-name="Camada 2" xmlns="http://www.w3.org/2000/svg" viewBox="0 0 160 160">
  <defs>
    <style>
      .cls-1, .cls-2 {
        stroke-width: 0px;
      }

      .cls-2 {
        fill: #fff;
      }
    </style>
  </defs>
  <g id="Amex">
    <g id="Logo">
      <g id="Amex-2" data-name="Amex">
        <rect class="cls-2" width="160" height="160"/>
        <g id="layer1">
          <path id="path3078" class="cls-1" d="m3.95,4.57h151.33v81.69l-7.49,11.7,7.49,10.42v47.52H3.95v-77.01l4.68-5.38-4.68-5.15V4.57Z"/>
          <path id="path3082" class="cls-2" d="m33.32,110.02v-23.76h25.16l2.7,3.52,2.79-3.52h91.31v22.12s-2.39,1.61-5.15,1.64h-50.56l-3.04-3.75v3.75h-9.97v-6.39s-1.36.89-4.31.89h-3.39v5.5h-15.1l-2.7-3.59-2.74,3.59h-25Z"/>
          <path id="path3080" class="cls-2" d="m3.95,68.36l5.67-13.23h9.81l3.22,7.41v-7.41h12.2l1.92,5.35,1.86-5.35h54.74v2.69s2.88-2.69,7.61-2.69l17.76.06,3.16,7.31v-7.37h10.21l2.81,4.2v-4.2h10.3v23.76h-10.3l-2.69-4.21v4.21h-14.99l-1.51-3.75h-4.03l-1.48,3.75h-10.17c-4.07,0-6.67-2.64-6.67-2.64v2.64h-15.33l-3.04-3.75v3.75H17.98l-1.51-3.75h-4.02l-1.5,3.75H3.95v-10.53Z"/>
          <path id="path3046" class="cls-1" d="m11.63,58.06l-7.65,17.79h4.98l1.41-3.56h8.21l1.4,3.56h5.09l-7.64-17.79h-5.8Zm2.83,4.14l2.5,6.22h-5.01l2.51-6.22Z"/>
          <path id="path3048" class="cls-1" d="m25.6,75.85v-17.79l7.08.03,4.12,11.47,4.02-11.5h7.02v17.79h-4.45v-13.11l-4.71,13.11h-3.9l-4.73-13.11v13.11h-4.45Z"/>
          <path id="path3050" class="cls-1" d="m50.88,75.85v-17.79h14.51v3.98h-10.02v3.04h9.78v3.75h-9.78v3.16h10.02v3.86h-14.51Z"/>
          <path id="path3052" class="cls-1" d="m67.97,58.06v17.79h4.45v-6.32h1.87l5.33,6.32h5.43l-5.85-6.55c2.4-.2,4.88-2.26,4.88-5.46,0-3.74-2.94-5.77-6.22-5.77h-9.9Zm4.45,3.98h5.08c1.22,0,2.11.95,2.11,1.87,0,1.18-1.15,1.87-2.04,1.87h-5.15v-3.75h0Z"/>
          <path id="path3054" class="cls-1" d="m90.44,75.85h-4.54v-17.79h4.54v17.79Z"/>
          <path id="path3056" class="cls-1" d="m101.2,75.85h-.98c-4.74,0-7.62-3.74-7.62-8.82s2.85-8.97,8.84-8.97h4.92v4.21h-5.1c-2.43,0-4.15,1.9-4.15,4.8,0,3.45,1.97,4.89,4.8,4.89h1.17l-1.87,3.89Z"/>
          <path id="path3058" class="cls-1" d="m110.88,58.06l-7.65,17.79h4.98l1.41-3.56h8.21l1.4,3.56h5.09l-7.64-17.79h-5.8Zm2.83,4.14l2.5,6.22h-5.01l2.51-6.22h0Z"/>
          <path id="path3060" class="cls-1" d="m124.85,75.85v-17.79h5.65l7.22,11.18v-11.18h4.45v17.79h-5.47l-7.4-11.47v11.47h-4.45Z"/>
          <path id="path3062" class="cls-1" d="m36.37,106.98v-17.79h14.51v3.98h-10.02v3.04h9.78v3.75h-9.78v3.16h10.02v3.86h-14.51Z"/>
          <path id="path3064" class="cls-1" d="m107.48,106.98v-17.79h14.51v3.98h-10.02v3.04h9.74v3.75h-9.74v3.16h10.02v3.86h-14.51Z"/>
          <path id="path3066" class="cls-1" d="m51.44,106.98l7.07-8.79-7.23-9h5.6l4.31,5.57,4.32-5.57h5.38l-7.14,8.89,7.08,8.89h-5.6l-4.18-5.48-4.08,5.48h-5.52Z"/>
          <path id="path3068" class="cls-1" d="m71.36,89.2v17.79h4.56v-5.62h4.68c3.96,0,6.96-2.1,6.96-6.19,0-3.39-2.35-5.98-6.39-5.98h-9.82Zm4.56,4.02h4.93c1.28,0,2.19.78,2.19,2.05,0,1.19-.91,2.05-2.21,2.05h-4.92v-4.1h0Z"/>
          <path id="path3072" class="cls-1" d="m89.5,89.19v17.79h4.45v-6.32h1.87l5.33,6.32h5.43l-5.85-6.55c2.4-.2,4.88-2.26,4.88-5.46,0-3.74-2.94-5.77-6.22-5.77h-9.9,0Zm4.45,3.98h5.08c1.22,0,2.11.95,2.11,1.87,0,1.18-1.15,1.87-2.04,1.87h-5.15v-3.75Z"/>
          <path id="path3074" class="cls-1" d="m124.05,106.98v-3.86h8.9c1.32,0,1.89-.71,1.89-1.49s-.57-1.5-1.89-1.5h-4.02c-3.5,0-5.44-2.13-5.44-5.33,0-2.85,1.78-5.6,6.98-5.6h8.66l-1.87,4h-7.49c-1.43,0-1.87.75-1.87,1.47s.54,1.55,1.64,1.55h4.21c3.9,0,5.59,2.21,5.59,5.11,0,3.11-1.88,5.66-5.8,5.66h-9.48Z"/>
          <path id="path3076" class="cls-1" d="m140.37,106.98v-3.86h8.9c1.32,0,1.89-.71,1.89-1.49s-.57-1.5-1.89-1.5h-4.02c-3.5,0-5.44-2.13-5.44-5.33,0-2.85,1.78-5.6,6.98-5.6h8.66l-1.87,4h-7.49c-1.43,0-1.87.75-1.87,1.47s.54,1.55,1.64,1.55h4.21c3.9,0,5.59,2.21,5.59,5.11,0,3.11-1.88,5.66-5.8,5.66h-9.48Z"/>
        </g>
      </g>
    </g>
  </g>
</svg>