<?xml version="1.0" encoding="UTF-8"?>
<svg id="Camada_2" data-name="Camada 2" xmlns="http://www.w3.org/2000/svg" viewBox="0 0 246.9 130">
  <defs>
    <style>
      .cls-1 {
        fill: #fff;
        stroke-width: 0px;
      }
    </style>
  </defs>
  <g id="Boleto">
    <g id="Logo">
      <g id="Boleto-2" data-name="Boleto">
        <path id="path4" class="cls-1" d="m.73,0h2.83v67.3H.73V0Zm5.65,0h2.83v67.3h-2.83V0Zm16.97,0h2.83v67.3h-2.83V0Zm55,0h2.83v67.3h-2.83V0Zm18.39,0h2.83v67.3h-2.83V0Zm17.83,0h2.83v67.3h-2.83V0Zm4.6,0h2.83v67.3h-2.83V0Zm4.6,0h2.83v67.3h-2.83V0Zm5.17,0h2.83v67.3h-2.83V0Zm5.17,0h2.83v67.3h-2.83V0Zm14.37,0h2.83v67.3h-2.83V0Zm35.64,0h2.83v67.3h-2.83V0Zm37.18,0h2.83v67.3h-2.83V0Zm10.17,0h2.83v67.3h-2.83V0Zm7.35,0h2.83v67.3h-2.83V0Zm4.52,0h2.83v67.3h-2.83V0ZM42,0h2.83v67.3h-2.83V0ZM13.73,0h5.09v67.3h-5.09V0Zm33.58,0h5.09v67.3h-5.09V0Zm23.58,0h5.09v67.3h-5.09V0Zm12.07,0h5.09v67.3h-5.09V0Zm18.97,0h5.09v67.3h-5.09V0Zm54.09,0h7.91v67.3h-7.91V0Zm10.34,0h6.22v67.3h-6.22V0Zm10.91,0h5.09v67.3h-5.09V0Zm14.42,0h8.48v67.3h-8.48V0Zm16.61,0h8.48v67.3h-8.48V0ZM29,0h10.18v67.3h-10.18V0Zm26.37,0h7.91v67.3h-7.91V0Z"/>
        <g>
          <path class="cls-1" d="m0,129.37v-46.23h17.7c3.34,0,6.12.52,8.34,1.57,2.22,1.05,3.88,2.47,4.99,4.28,1.11,1.81,1.66,3.85,1.66,6.14,0,1.88-.36,3.49-1.08,4.82s-1.69,2.41-2.91,3.24c-1.22.83-2.58,1.42-4.09,1.78v.45c1.64.09,3.22.59,4.73,1.5,1.51.91,2.75,2.19,3.71,3.85.96,1.66,1.45,3.66,1.45,6.01s-.58,4.54-1.74,6.44c-1.16,1.9-2.91,3.41-5.24,4.5s-5.27,1.65-8.8,1.65H0Zm8.37-26.57h8.29c1.45,0,2.75-.27,3.9-.8,1.16-.54,2.07-1.3,2.74-2.28.67-.99,1.01-2.16,1.01-3.51,0-1.79-.63-3.27-1.89-4.43-1.26-1.16-3.12-1.74-5.59-1.74h-8.47v12.76Zm0,19.57h9.01c3.04,0,5.23-.58,6.58-1.75,1.35-1.17,2.02-2.67,2.02-4.5,0-1.37-.34-2.61-1.02-3.71-.68-1.11-1.64-1.98-2.89-2.62-1.25-.64-2.74-.96-4.47-.96h-9.23v13.55Z"/>
          <path class="cls-1" d="m83.1,106.25c0,4.98-.93,9.24-2.79,12.79-1.86,3.54-4.39,6.26-7.59,8.14-3.2,1.88-6.82,2.82-10.87,2.82s-7.67-.94-10.87-2.83c-3.2-1.89-5.73-4.61-7.59-8.15-1.86-3.54-2.79-7.8-2.79-12.77s.93-9.25,2.79-12.79c1.86-3.54,4.39-6.26,7.59-8.14,3.2-1.88,6.82-2.82,10.87-2.82s7.67.94,10.87,2.82c3.2,1.88,5.73,4.59,7.59,8.14,1.86,3.54,2.79,7.81,2.79,12.79Zm-8.42,0c0-3.51-.55-6.47-1.64-8.88-1.09-2.41-2.6-4.24-4.53-5.49-1.93-1.24-4.15-1.86-6.66-1.86s-4.73.62-6.66,1.86c-1.93,1.24-3.44,3.07-4.53,5.49-1.09,2.42-1.64,5.38-1.64,8.88s.55,6.47,1.64,8.88c1.09,2.42,2.6,4.25,4.53,5.49,1.93,1.24,4.15,1.86,6.66,1.86s4.73-.62,6.66-1.86c1.93-1.24,3.43-3.07,4.53-5.49,1.09-2.41,1.64-5.38,1.64-8.88Z"/>
          <path class="cls-1" d="m91.05,129.37v-46.23h8.37v39.21h20.36v7.02h-28.74Z"/>
          <path class="cls-1" d="m127.03,129.37v-46.23h30.07v7.02h-21.7v12.55h20.14v7.02h-20.14v12.62h21.88v7.02h-30.25Z"/>
          <path class="cls-1" d="m163.62,90.15v-7.02h36.89v7.02h-14.29v39.21h-8.31v-39.21h-14.29Z"/>
          <path class="cls-1" d="m246.9,106.25c0,4.98-.93,9.24-2.79,12.79-1.86,3.54-4.39,6.26-7.59,8.14-3.2,1.88-6.82,2.82-10.87,2.82s-7.67-.94-10.87-2.83c-3.2-1.89-5.73-4.61-7.59-8.15-1.86-3.54-2.79-7.8-2.79-12.77s.93-9.25,2.79-12.79c1.86-3.54,4.39-6.26,7.59-8.14,3.2-1.88,6.82-2.82,10.87-2.82s7.67.94,10.87,2.82c3.2,1.88,5.73,4.59,7.59,8.14,1.86,3.54,2.79,7.81,2.79,12.79Zm-8.42,0c0-3.51-.55-6.47-1.64-8.88-1.09-2.41-2.6-4.24-4.53-5.49-1.93-1.24-4.15-1.86-6.66-1.86s-4.73.62-6.66,1.86c-1.93,1.24-3.44,3.07-4.53,5.49-1.09,2.42-1.64,5.38-1.64,8.88s.55,6.47,1.64,8.88c1.09,2.42,2.6,4.25,4.53,5.49,1.93,1.24,4.15,1.86,6.66,1.86s4.73-.62,6.66-1.86c1.93-1.24,3.43-3.07,4.53-5.49,1.09-2.41,1.64-5.38,1.64-8.88Z"/>
        </g>
      </g>
    </g>
  </g>
</svg>