<?xml version="1.0" encoding="UTF-8"?>
<svg id="Camada_2" data-name="Camada 2" xmlns="http://www.w3.org/2000/svg" viewBox="0 0 222.08 110.75">
  <defs>
    <style>
      .cls-1 {
        fill: #fff;
        stroke-width: 0px;
      }
    </style>
  </defs>
  <g id="Elo">
    <g id="Logo">
      <g id="Page-1">
        <g id="elo">
          <g id="Group">
            <path id="Shape" class="cls-1" d="m63.76,84.53c-4.95,4.83-11.62,7.75-18.99,7.62-5.08-.06-9.78-1.59-13.72-4.13l-9.91,15.75c6.8,4.25,14.73,6.8,23.37,6.92,12.51.19,23.94-4.76,32.26-12.83l-13.02-13.34ZM45.86,20.32C20.96,19.94.39,39.88,0,64.78c-.13,9.34,2.54,18.1,7.3,25.34l81.8-34.99c-4.57-19.62-22.1-34.42-43.25-34.8Zm-27.12,48.01c-.13-1.02-.19-2.1-.19-3.18.25-14.67,12.32-26.42,26.99-26.16,8,.13,15.11,3.75,19.88,9.46l-46.68,19.88ZM114.82,0v87.19l15.11,6.29-7.18,17.21-14.99-6.22c-3.37-1.46-5.65-3.68-7.37-6.22-1.65-2.54-2.92-6.1-2.92-10.8V0h17.34Z"/>
            <path id="Shape-2" data-name="Shape" class="cls-1" d="m169.37,40.33c2.67-.89,5.46-1.33,8.45-1.33,12.89,0,23.56,9.14,26.04,21.27l18.23-3.75c-4.19-20.64-22.42-36.13-44.26-36.13-5.02,0-9.84.83-14.29,2.29l5.84,17.65Zm-21.53,59l12.32-13.91c-5.52-4.89-8.95-12-8.95-19.94s3.49-15.05,8.95-19.88l-12.32-13.91c-9.34,8.26-15.24,20.39-15.24,33.85s5.91,25.53,15.24,33.78Zm56.01-28.45c-2.48,12.13-13.21,21.27-26.04,21.27-2.92,0-5.78-.51-8.45-1.4l-5.91,17.65c4.51,1.52,9.34,2.35,14.35,2.35,21.85,0,40.07-15.5,44.26-36.13l-18.23-3.75Z"/>
          </g>
        </g>
      </g>
    </g>
  </g>
</svg>