<?xml version="1.0" encoding="UTF-8"?>
<svg id="Camada_2" data-name="Camada 2" xmlns="http://www.w3.org/2000/svg" viewBox="0 0 206.32 160">
  <defs>
    <style>
      .cls-1 {
        fill: #fff;
        stroke-width: 0px;
      }
    </style>
  </defs>
  <g id="Master">
    <g id="Logo">
      <g id="Master-2" data-name="Master">
        <path class="cls-1" d="m37.53,159.57v-10.62c0-4-2.55-6.69-6.66-6.73-2.16-.04-4.39.64-5.95,3.01-1.17-1.88-3.01-3.01-5.6-3.01-1.81,0-3.58.53-4.96,2.51v-2.09h-3.68v16.93h3.72v-9.39c0-2.94,1.63-4.5,4.14-4.5s3.68,1.59,3.68,4.46v9.42h3.72v-9.39c0-2.94,1.7-4.5,4.14-4.5s3.72,1.59,3.72,4.46v9.42h3.72Zm55.04-16.93h-6.02v-5.14h-3.72v5.14h-3.44v3.36h3.44v7.72c0,3.93,1.52,6.27,5.88,6.27,1.59,0,3.44-.5,4.6-1.31l-1.06-3.15c-1.1.64-2.3.96-3.26.96-1.84,0-2.44-1.13-2.44-2.83v-7.65h6.02v-3.36Zm31.41-.43c-2.12,0-3.51.99-4.46,2.48v-2.05h-3.65v16.93h3.68v-9.49c0-2.8,1.2-4.36,3.61-4.36.74,0,1.52.11,2.3.43l1.13-3.47c-.81-.32-1.88-.46-2.62-.46h0Zm-47.49,1.77c-1.77-1.17-4.21-1.77-6.91-1.77-4.29,0-7.05,2.05-7.05,5.42,0,2.76,2.05,4.46,5.84,4.99l1.74.25c2.02.28,2.97.81,2.97,1.77,0,1.31-1.35,2.05-3.86,2.05s-4.39-.81-5.63-1.77l-1.74,2.87c2.02,1.49,4.57,2.2,7.33,2.2,4.89,0,7.72-2.3,7.72-5.53,0-2.97-2.23-4.53-5.91-5.06l-1.74-.25c-1.59-.21-2.87-.53-2.87-1.66,0-1.24,1.2-1.98,3.22-1.98,2.16,0,4.25.81,5.28,1.45l1.59-2.97Zm98.67-1.77c-2.13,0-3.51.99-4.46,2.48v-2.05h-3.65v16.93h3.68v-9.49c0-2.8,1.2-4.36,3.61-4.36.74,0,1.52.11,2.3.43l1.13-3.47c-.81-.32-1.88-.46-2.62-.46h0Zm-47.46,8.89c0,5.14,3.58,8.89,9.03,8.89,2.55,0,4.25-.57,6.09-2.02l-1.77-2.97c-1.38.99-2.83,1.52-4.43,1.52-2.94-.04-5.1-2.16-5.1-5.42s2.16-5.38,5.1-5.42c1.59,0,3.05.53,4.43,1.52l1.77-2.98c-1.84-1.45-3.54-2.02-6.09-2.02-5.45,0-9.03,3.75-9.03,8.89h0Zm34.5,0v-8.46h-3.68v2.05c-1.17-1.52-2.94-2.48-5.35-2.48-4.75,0-8.46,3.72-8.46,8.89s3.72,8.89,8.46,8.89c2.41,0,4.18-.96,5.35-2.48v2.05h3.68v-8.46Zm-13.71,0c0-2.97,1.95-5.42,5.14-5.42s5.1,2.34,5.1,5.42-2.05,5.42-5.1,5.42-5.14-2.44-5.14-5.42h0Zm-44.45-8.89c-4.96,0-8.43,3.61-8.43,8.89s3.61,8.89,8.68,8.89c2.55,0,4.89-.64,6.94-2.37l-1.81-2.73c-1.42,1.13-3.22,1.77-4.92,1.77-2.37,0-4.53-1.1-5.06-4.14h12.57c.04-.46.07-.92.07-1.42-.04-5.28-3.29-8.89-8.04-8.89h0Zm-.07,3.29c2.37,0,3.9,1.49,4.29,4.11h-8.78c.39-2.44,1.88-4.11,4.5-4.11h0Zm92.4,5.6v-15.26h-3.68v8.85c-1.17-1.52-2.94-2.48-5.35-2.48-4.75,0-8.46,3.72-8.46,8.89s3.72,8.89,8.46,8.89c2.41,0,4.18-.96,5.35-2.48v2.05h3.68v-8.46Zm-13.71,0c0-2.97,1.95-5.42,5.14-5.42s5.1,2.34,5.1,5.42-2.05,5.42-5.1,5.42-5.14-2.44-5.14-5.42h0Zm-124.38,0v-8.46h-3.68v2.05c-1.17-1.52-2.94-2.48-5.35-2.48-4.75,0-8.46,3.72-8.46,8.89s3.72,8.89,8.46,8.89c2.41,0,4.18-.96,5.35-2.48v2.05h3.68v-8.46Zm-13.71,0c0-2.97,1.95-5.42,5.14-5.42s5.1,2.34,5.1,5.42-2.05,5.42-5.1,5.42-5.14-2.44-5.14-5.42Zm52.93-35.53c.5.43,1.02.85,1.54,1.28-10.11,6.73-22.24,10.66-35.3,10.66C28.54,127.51,0,98.97,0,63.76S28.54,0,63.76,0c13.05,0,25.19,3.92,35.29,10.66-.52.42-1.04.84-1.54,1.28-15.02,13.07-23.63,31.96-23.63,51.83s8.61,38.76,23.63,51.83ZM142.56,0C129.51,0,117.38,3.92,107.27,10.66c.52.42,1.04.84,1.54,1.28,15.02,13.07,23.63,31.96,23.63,51.82s-8.61,38.76-23.63,51.83c-.5.43-1.02.85-1.54,1.28,10.11,6.73,22.24,10.65,35.29,10.65,35.21,0,63.76-28.54,63.76-63.76S177.78,0,142.56,0Zm-39.4,13.66c-.82.65-1.63,1.31-2.41,2-13.44,11.69-21.94,28.9-21.94,48.1s8.5,36.42,21.94,48.1c.79.69,1.59,1.35,2.41,2,.82-.65,1.63-1.31,2.41-2,13.44-11.69,21.94-28.9,21.94-48.1s-8.5-36.42-21.94-48.1c-.79-.69-1.59-1.35-2.41-2"/>
      </g>
    </g>
  </g>
</svg>