<?xml version="1.0" encoding="UTF-8"?>
<svg id="Camada_2" data-name="Camada 2" xmlns="http://www.w3.org/2000/svg" viewBox="0 0 339.59 120">
  <defs>
    <style>
      .cls-1 {
        fill: none;
        stroke: #fff;
        stroke-linecap: round;
        stroke-linejoin: round;
        stroke-width: 6.26px;
      }

      .cls-2 {
        fill: #fff;
        stroke-width: 0px;
      }
    </style>
  </defs>
  <g id="Pix">
    <g id="Logo">
      <g id="Pix-2" data-name="Pix">
        <g id="g964">
          <g id="g966">
            <g id="g972">
              <path id="path974" class="cls-1" d="m139.32,112.05V43.23c0-12.66,10.27-22.93,22.93-22.93l20.32.03c12.63.03,22.85,10.27,22.85,22.89v14.65c0,12.66-10.27,22.93-22.93,22.93h-28.71"/>
            </g>
            <g id="g976">
              <path id="path978" class="cls-1" d="m211.09,20.29h8.81c5.2,0,9.41,4.21,9.41,9.41v51.41"/>
            </g>
            <g id="g980">
              <path id="path982" class="cls-2" d="m227.42,12.33l-4-4c-.99-.99-.99-2.6,0-3.59l3.99-3.99c.99-.99,2.6-.99,3.6,0l3.99,3.99c.99.99.99,2.6,0,3.59l-4,4c-.99.99-2.6.99-3.59,0"/>
            </g>
            <g id="g984">
              <path id="path986" class="cls-1" d="m246.22,20.25h8.74c4.5,0,8.81,1.79,11.99,4.97l20.45,20.44c2.65,2.65,6.94,2.65,9.59,0l20.37-20.37c3.18-3.18,7.49-4.97,11.99-4.97h7.11"/>
            </g>
            <g id="g988">
              <path id="path990" class="cls-1" d="m246.22,80.66h8.74c4.5,0,8.81-1.79,11.99-4.97l20.45-20.45c2.65-2.65,6.94-2.65,9.59,0l20.37,20.37c3.18,3.18,7.49,4.97,11.99,4.97h7.11"/>
            </g>
            <g id="g992">
              <path id="path994" class="cls-2" d="m87.2,93.72c-4.39,0-8.51-1.71-11.62-4.81l-16.77-16.77c-1.18-1.18-3.23-1.18-4.41,0l-16.83,16.83c-3.1,3.1-7.23,4.81-11.62,4.81h-3.3l21.24,21.24c6.63,6.63,17.39,6.63,24.02,0l21.3-21.3h-2.02Z"/>
            </g>
            <g id="g996">
              <path id="path998" class="cls-2" d="m25.96,34.4c4.39,0,8.51,1.71,11.62,4.81l16.83,16.84c1.21,1.21,3.19,1.22,4.41,0l16.77-16.77c3.1-3.1,7.23-4.81,11.62-4.81h2.02l-21.3-21.3c-6.63-6.63-17.39-6.63-24.02,0l-21.24,21.24h3.3Z"/>
            </g>
            <g id="g1000">
              <path id="path1002" class="cls-2" d="m106.84,52.08l-12.87-12.87c-.28.11-.59.18-.91.18h-5.85c-3.03,0-5.99,1.23-8.13,3.37l-16.77,16.77c-1.57,1.57-3.63,2.36-5.69,2.36s-4.12-.79-5.69-2.35l-16.83-16.83c-2.14-2.14-5.1-3.37-8.13-3.37h-7.2c-.31,0-.59-.07-.86-.17l-12.92,12.92c-6.63,6.63-6.63,17.39,0,24.02l12.92,12.92c.27-.1.56-.17.87-.17h7.2c3.03,0,5.99-1.23,8.13-3.37l16.83-16.83c3.04-3.04,8.35-3.04,11.39,0l16.77,16.77c2.14,2.14,5.1,3.37,8.13,3.37h5.85c.32,0,.63.07.91.18l12.87-12.87c6.63-6.63,6.63-17.39,0-24.02"/>
            </g>
            <g id="g1004">
              <path id="path1006" class="cls-2" d="m156.79,106.2c-.95,0-2.06.23-3.15.48v4.19c.76.28,1.62.41,2.45.41,2.1,0,3.1-.71,3.1-2.56,0-1.74-.82-2.52-2.4-2.52m-3.86,7.79v-8.29h.58l.06.36c.97-.23,2.32-.53,3.28-.53.78,0,1.53.12,2.15.62.72.59.95,1.54.95,2.57s-.36,2.1-1.35,2.67c-.69.38-1.61.54-2.44.54s-1.67-.13-2.52-.38v2.44h-.71Z"/>
            </g>
            <g id="g1008">
              <path id="path1010" class="cls-2" d="m165.23,106.17c-2.1,0-3.04.66-3.04,2.51s.93,2.6,3.04,2.6,3.03-.65,3.03-2.5-.93-2.61-3.03-2.61m2.7,5.11c-.7.5-1.63.65-2.7.65s-2.03-.16-2.72-.65c-.77-.54-1.08-1.43-1.08-2.55s.31-2.01,1.08-2.56c.69-.49,1.62-.65,2.72-.65s2.01.16,2.7.65c.78.55,1.08,1.45,1.08,2.55s-.31,2.02-1.08,2.56"/>
            </g>
            <g id="g1012">
              <path id="path1014" class="cls-2" d="m177.89,111.76l-2.34-5.04h-.05l-2.31,5.04h-.64l-2.5-6.07h.78l2.08,5.1h.05l2.26-5.1h.65l2.32,5.1h.05l2.03-5.1h.76l-2.5,6.07h-.64Z"/>
            </g>
            <g id="g1016">
              <path id="path1018" class="cls-2" d="m185.56,106.16c-1.95,0-2.61.87-2.73,2.12h5.46c-.06-1.38-.77-2.12-2.73-2.12m-.02,5.77c-1.17,0-1.92-.17-2.52-.67-.71-.61-.95-1.5-.95-2.52s.32-2.01,1.13-2.6c.67-.47,1.5-.61,2.37-.61.78,0,1.68.08,2.43.59.88.59,1.05,1.62,1.05,2.8h-6.23c.02,1.25.43,2.36,2.79,2.36,1.12,0,2.16-.18,3.14-.35v.64c-1.01.18-2.13.37-3.2.37"/>
            </g>
            <g id="g1020">
              <path id="path1022" class="cls-2" d="m191.07,111.76v-6.07h.58l.06.36c1.29-.33,1.89-.53,3.02-.53h.08v.67h-.17c-.95,0-1.53.13-2.86.48v5.08h-.71Z"/>
            </g>
            <g id="g1024">
              <path id="path1026" class="cls-2" d="m198.93,106.16c-1.95,0-2.61.87-2.73,2.12h5.46c-.06-1.38-.77-2.12-2.73-2.12m-.02,5.77c-1.17,0-1.92-.17-2.52-.67-.71-.61-.95-1.5-.95-2.52s.32-2.01,1.13-2.6c.67-.47,1.5-.61,2.37-.61.78,0,1.68.08,2.43.59.88.59,1.05,1.62,1.05,2.8h-6.23c.02,1.25.43,2.36,2.79,2.36,1.12,0,2.16-.18,3.14-.35v.64c-1.01.18-2.13.37-3.2.37"/>
            </g>
            <g id="g1028">
              <path id="path1030" class="cls-2" d="m210.17,106.58c-.76-.28-1.62-.41-2.45-.41-2.1,0-3.1.71-3.1,2.56,0,1.75.82,2.52,2.4,2.52.95,0,2.06-.23,3.15-.47v-4.21Zm.13,5.18l-.06-.36c-.97.23-2.32.53-3.28.53-.78,0-1.53-.11-2.15-.63-.72-.59-.95-1.54-.95-2.57s.36-2.1,1.35-2.66c.69-.4,1.61-.55,2.45-.55s1.66.14,2.51.38v-2.78h.71v8.63h-.58Z"/>
            </g>
            <g id="g1032">
              <path id="path1034" class="cls-2" d="m221.28,106.2c-.95,0-2.06.23-3.15.48v4.18c.77.29,1.62.42,2.45.42,2.1,0,3.1-.71,3.1-2.56,0-1.74-.82-2.52-2.4-2.52m1.81,5.19c-.69.38-1.61.54-2.44.54-.9,0-1.8-.16-2.72-.46l-.04.29h-.48v-8.63h.71v2.9c.97-.22,2.28-.5,3.21-.5.78,0,1.53.12,2.15.62.72.59.95,1.54.95,2.57s-.36,2.1-1.35,2.67"/>
            </g>
            <g id="g1036">
              <path id="path1038" class="cls-2" d="m225.38,114.09v-.66c.35.04.67.06.9.06.88,0,1.41-.25,1.9-1.25l.23-.48-3.17-6.07h.82l2.72,5.24h.05l2.58-5.24h.81l-3.41,6.81c-.62,1.24-1.3,1.65-2.54,1.65-.28,0-.58-.02-.88-.06"/>
            </g>
            <g id="g1040">
              <path id="path1042" class="cls-2" d="m241.98,108.3h-2.36v2.13h2.37c1.62,0,2.24-.18,2.24-1.07,0-.95-.84-1.06-2.25-1.06m-.43-3.45h-1.92v2.16h1.93c1.6,0,2.24-.19,2.24-1.09,0-.96-.81-1.07-2.25-1.07m3.65,6.34c-.87.55-1.91.58-3.82.58h-3.59v-8.23h3.51c1.65,0,2.66.02,3.5.53.6.36.84.91.84,1.63,0,.87-.36,1.44-1.3,1.83v.05c1.06.24,1.74.78,1.74,1.95,0,.79-.29,1.31-.88,1.67"/>
            </g>
            <g id="g1044">
              <path id="path1046" class="cls-2" d="m253.27,109.22c-.71-.06-1.43-.1-2.19-.1-1.24,0-1.67.25-1.67.82,0,.53.36.82,1.31.82.79,0,1.74-.18,2.55-.36v-1.18Zm.36,2.55l-.05-.36c-1.03.25-2.24.53-3.29.53-.65,0-1.35-.08-1.84-.45-.46-.32-.67-.85-.67-1.47,0-.68.3-1.32,1.02-1.65.64-.3,1.49-.32,2.27-.32.64,0,1.49.04,2.2.08v-.11c0-.95-.63-1.26-2.33-1.26-.66,0-1.47.03-2.24.11v-1.23c.85-.07,1.81-.12,2.61-.12,1.06,0,2.15.08,2.82.56.7.49.83,1.18.83,2.08v3.59h-1.33Z"/>
            </g>
            <g id="g1048">
              <path id="path1050" class="cls-2" d="m262.89,111.76v-3.35c0-1.1-.56-1.5-1.57-1.5-.74,0-1.68.19-2.48.38v4.47h-1.69v-6.07h1.38l.06.38c1.07-.28,2.26-.55,3.25-.55.74,0,1.5.11,2.08.62.48.43.66,1.03.66,1.9v3.71h-1.68Z"/>
            </g>
            <g id="g1052">
              <path id="path1054" class="cls-2" d="m269.36,111.93c-.78,0-1.64-.11-2.26-.64-.74-.6-.96-1.55-.96-2.57,0-.96.31-2.01,1.24-2.59.76-.49,1.69-.6,2.67-.6.7,0,1.38.05,2.14.12v1.3c-.61-.06-1.35-.11-1.93-.11-1.61,0-2.37.5-2.37,1.9,0,1.31.57,1.87,1.89,1.87.77,0,1.67-.14,2.55-.31v1.25c-.95.19-1.98.38-2.96.38"/>
            </g>
            <g id="g1056">
              <path id="path1058" class="cls-2" d="m277.32,106.8c-1.61,0-2.32.51-2.32,1.89s.7,1.97,2.32,1.97,2.3-.49,2.3-1.88-.68-1.98-2.3-1.98m2.91,4.5c-.75.5-1.72.64-2.91.64s-2.19-.15-2.92-.64c-.84-.55-1.14-1.47-1.14-2.56s.3-2.02,1.14-2.57c.73-.49,1.71-.64,2.92-.64s2.16.14,2.91.64c.84.55,1.13,1.48,1.13,2.56s-.3,2.02-1.13,2.57"/>
            </g>
            <g id="g1060">
              <path id="path1062" class="cls-2" d="m291.14,111.93c-1.02,0-2.13-.17-2.96-.85-.99-.82-1.29-2.08-1.29-3.44,0-1.21.38-2.66,1.67-3.5,1-.65,2.24-.78,3.49-.78.91,0,1.85.06,2.87.14v1.48c-.88-.07-1.96-.13-2.8-.13-2.34,0-3.34.89-3.34,2.79s.93,2.8,2.66,2.8c1.13,0,2.39-.23,3.67-.49v1.47c-1.27.25-2.61.52-3.97.52"/>
            </g>
            <g id="g1064">
              <path id="path1066" class="cls-2" d="m300.09,106.61c-1.41,0-1.95.51-2.06,1.43h4.09c-.05-.99-.63-1.43-2.03-1.43m-.25,5.32c-1,0-1.9-.12-2.57-.67-.72-.6-.97-1.5-.97-2.54,0-.93.3-1.96,1.14-2.56.74-.53,1.69-.64,2.66-.64.87,0,1.89.1,2.63.61.97.69,1.06,1.74,1.07,2.99h-5.77c.04.93.53,1.53,2.24,1.53,1.06,0,2.24-.16,3.23-.31v1.19c-1.17.19-2.44.4-3.65.4"/>
            </g>
            <g id="g1068">
              <path id="path1070" class="cls-2" d="m311.33,111.76v-3.35c0-1.1-.56-1.5-1.57-1.5-.74,0-1.68.19-2.48.38v4.47h-1.69v-6.07h1.38l.06.38c1.07-.28,2.26-.55,3.25-.55.74,0,1.5.11,2.08.62.48.43.66,1.03.66,1.9v3.71h-1.68Z"/>
            </g>
            <g id="g1072">
              <path id="path1074" class="cls-2" d="m317.83,111.93c-.82,0-1.56-.23-1.97-.87-.3-.43-.44-1.02-.44-1.84v-2.27h-1.23v-1.26h1.23l.18-1.84h1.5v1.84h2.39v1.26h-2.39v1.95c0,.47.04.87.17,1.15.18.41.58.56,1.11.56.4,0,.88-.06,1.21-.12v1.21c-.55.11-1.19.22-1.75.22"/>
            </g>
            <g id="g1076">
              <path id="path1078" class="cls-2" d="m321.15,111.76v-6.07h1.38l.06.38c1.12-.31,1.95-.55,3-.55.05,0,.12,0,.22.01v1.44c-.19-.01-.42-.01-.59-.01-.83,0-1.45.1-2.38.31v4.48h-1.69Z"/>
            </g>
            <g id="g1080">
              <path id="path1082" class="cls-2" d="m331.97,109.22c-.71-.06-1.43-.1-2.19-.1-1.24,0-1.67.25-1.67.82,0,.53.36.82,1.31.82.79,0,1.74-.18,2.55-.36v-1.18Zm.36,2.55l-.05-.36c-1.03.25-2.24.53-3.29.53-.65,0-1.35-.08-1.84-.45-.46-.32-.67-.85-.67-1.47,0-.68.3-1.32,1.02-1.65.64-.3,1.49-.32,2.27-.32.64,0,1.49.04,2.2.08v-.11c0-.95-.63-1.26-2.33-1.26-.66,0-1.47.03-2.24.11v-1.23c.85-.07,1.81-.12,2.61-.12,1.06,0,2.15.08,2.82.56.7.49.83,1.18.83,2.08v3.59h-1.33Z"/>
            </g>
            <path id="path1084" class="cls-2" d="m335.84,103.13h1.69v8.63h-1.69v-8.63Z"/>
          </g>
        </g>
      </g>
    </g>
  </g>
</svg>