<?xml version="1.0" encoding="UTF-8"?>
<svg id="Camada_2" data-name="Camada 2" xmlns="http://www.w3.org/2000/svg" viewBox="0 0 301.91 92.52">
  <defs>
    <style>
      .cls-1 {
        fill: #fff;
        stroke-width: 0px;
      }
    </style>
  </defs>
  <g id="Visa">
    <g id="Logo">
      <path id="Visa-2" data-name="Visa" class="cls-1" d="m219.47,3.79C212.45,1.23,205.04-.05,197.57,0,173.42,0,156.36,12.17,156.24,29.63c-.15,12.83,12.12,20.06,21.4,24.35,9.52,4.41,12.71,7.18,12.68,11.12-.06,5.99-7.61,8.71-14.63,8.71-9.64,0-14.91-1.34-23.02-4.71l-3-1.4-3.43,20.1c5.87,2.45,16.45,4.54,27.38,4.72,25.67,0,42.46-12.09,42.65-30.67.21-10.25-6.43-17.99-20.41-24.39-8.5-4.15-13.76-6.93-13.76-11.14,0-3.73,4.51-7.71,13.95-7.71,6.28-.15,12.52,1.03,18.31,3.46l2.26,1.01,3.43-19.42-.59.14h0Zm62.67-2.16h-18.87c-5.87,0-10.29,1.61-12.86,7.44l-36.28,82.2h25.67l5.13-13.48,31.33.03c.74,3.15,3,13.45,3,13.45h22.64L282.14,1.63h0ZM121.51.88h24.47l-15.3,89.68h-24.44L121.51.85v.03h0Zm-62.11,49.43l2.54,12.45L85.85,1.63h25.91l-38.5,89.52h-25.85L26.28,15.35c-.34-1.25-1.15-2.32-2.25-3C16.41,8.41,8.34,5.43,0,3.46l.33-1.89h39.38c5.34.21,9.64,1.89,11.08,7.59l8.6,41.19v-.05h.02Zm192.54,9.15l9.75-25.08c-.12.27,2.01-5.18,3.25-8.54l1.68,7.74,5.66,25.87h-20.35v.02h.02Z"/>
    </g>
  </g>
</svg>